# AST/ASF file generated using VICON BodyLanguage
# -----------------------------------------------
:version 1.10
:name VICON
:units
  mass 1.0
  length 0.45
  angle deg
:documentation
   .ast/.asf automatically generated from VICON data using
   VICON BodyBuilder and BodyLanguage model FoxedUp or BRILLIANT.MOD
:root
   order TX TY TZ RX RY RZ
   axis XYZ
   position 0 0 0  
   orientation 0 -0 0 
:bonedata
  begin
     id 1 
     name lhipjoint
     direction 0.500677 -0.737119 0.453848 
     length 2.34727 
     axis 0 -0 0  XYZ
  end
  begin
     id 2 
     name lfemur
     direction 0.34202 -0.939693 0  
     length 7.53653  
     axis 0 -0 20  XYZ
    dof rx ry rz
    limits (-160.0 20.0)
           (-70.0 70.0)
           (-60.0 70.0)
  end
  begin
     id 3 
     name ltibia
     direction 0.34202 -0.939693 0   
     length 6.85572   
     axis 0 -0 20   XYZ
    dof rx
    limits (-10.0 170.0)
  end
  begin
     id 4 
     name lfoot
     direction 0.155313 -0.426718 0.890949   
     length 2.18324   
     axis -90 -1.13533e-015 20   XYZ
    dof rx rz
    limits (-45.0 90.0)
           (-70.0 20.0)
  end
  begin
     id 5 
     name ltoes
     direction 1.53474e-011 -4.21647e-011 1   
     length 1.06748   
     axis -90 -1.13533e-015 20   XYZ
    dof rx
    limits (-90.0 20.0)
  end
  begin
     id 6 
     name rhipjoint
     direction -0.632471 -0.659587 0.406111   
     length 2.62319  
     axis 0 -0 0  XYZ 
  end
  begin
     id 7 
     name rfemur
     direction -0.34202 -0.939693 0   
     length 7.21735   
     axis 0 -0 -20   XYZ
    dof rx ry rz
    limits (-160.0 20.0)
           (-70.0 70.0)
           (-70.0 60.0)
  end
  begin
     id 8 
     name rtibia
     direction -0.34202 -0.939693 0   
     length 7.02558   
     axis 0 -0 -20   XYZ
    dof rx
    limits (-10.0 170.0)
 end
 begin
     id 9 
     name rfoot
     direction -0.16057 -0.441164 0.882945   
     length 2.10014  
     axis -90 1.13533e-015 -20   XYZ
    dof rx rz
    limits (-45.0 90.0)
           (-20.0 70.0)
  end
  begin
     id 10 
     name rtoes
     direction -1.53553e-011 -4.2192e-011 1   
     length 1.02554   
     axis -90 1.13533e-015 -20   XYZ
    dof rx
    limits (-90.0 20.0)
  end
  begin
     id 11 
     name lowerback
     direction 0.0401429 0.998861 -0.0258085   
     length 1.80848   
     axis 0 -0 0   XYZ
    dof rx ry rz
    limits (-20.0 45.0)
           (-30.0 30.0)
           (-30.0 30.0)
  end
  begin
     id 12 
     name upperback
     direction -0.0130978 0.999914 -0.000352645   
     length 1.8116   
     axis 0 -0 0   XYZ
    dof rx ry rz
    limits (-20.0 45.0)
           (-30.0 30.0)
           (-30.0 30.0)
  end
  begin
     id 13 
     name thorax
     direction -0.0300198 0.999453 0.0138573   
     length 1.81778   
     axis 0 -0 0   XYZ
    dof rx ry rz
    limits (-20.0 45.0)
           (-30.0 30.0)
           (-30.0 30.0)
  end
  begin
     id 14 
     name lowerneck
     direction -0.0401726 0.999191 -0.00173647   
     length 2.10594   
     axis 0 -0 0   XYZ
    dof rx ry rz
    limits (-20.0 45.0)
           (-30.0 30.0)
           (-30.0 30.0)
  end
  begin
     id 15 
     name upperneck
     direction 0.0119835 0.998501 0.0534085   
     length 2.07325   
     axis 0 -0 0   XYZ
    dof rx ry rz
    limits (-20.0 45.0)
           (-30.0 30.0)
           (-30.0 30.0)
  end
  begin
     id 16
     name head
     direction 0.00628309 0.999826 0.0175921  
     length 2.15096  
     axis 0 -0 0   XYZ
    dof rx ry rz
    limits (-20.0 45.0)
           (-30.0 30.0)
           (-30.0 30.0)
  end
  begin
     id 17 
     name lclavicle
     direction 0.895501 0.429681 -0.115981  
     length 4.18092  
     axis 0 -0 0   XYZ
    dof ry rz
    limits (-20.0 10.0)
           (0.0 20.0)
  end
  begin
     id 18 
     name lhumerus
     direction 1 -4.48961e-011 -3.38433e-028   
     length 5.77237   
     axis 180 -30 -90   XYZ
    dof rx ry rz
    limits (-60.0 90.0)
           (-90.0 90.0)
           (-90.0 90.0)
  end
  begin
     id 19
     name lradius
     direction 1 -4.4901e-011 1.11983e-026   
     length 2.91878   
     axis 180 -30 -90   XYZ
    dof rx
    limits (-10.0 170.0)
  end
  begin
     id 20
     name lwrist
     direction 1 -4.48934e-011 1.88176e-026   
     length 1.45939   
     axis -1.23311e-014 90 90   XYZ
    dof ry
    limits (-180.0 0.0)
 end
  begin
     id 21 
     name lhand
     direction 1 -4.4895e-011 3.76352e-026   
     length 1.06566   
     axis -2.40147e-014 90 90   XYZ
    dof rx rz
    limits (-90.0 90.0)
           (-45.0 45.0)
  end
  begin
     id 22 
     name lfingers
     direction 1 -4.49005e-011 7.52705e-026   
     length 0.859162   
     axis -4.80295e-014 90 90   XYZ
    dof rx
    limits (0.0 90.0)
  end
  begin
     id 23
     name lthumb
     direction 0.707107 -6.34885e-011 0.707107   
     length 1.23359   
     axis -90 45 -9.86935e-015   XYZ
    dof rx rz
    limits (-45.0 45.0)
           (-45.0 45.0)
  end
  begin
     id 24 
     name rclavicle
     direction -0.91006 0.40451 -0.0903492   
     length 4.23293  
     axis 0 -0 0   XYZ 
    dof ry rz
    limits (-10.0 20.0)
           (-20.0 0.0)
  end
  begin
     id 25 
     name rhumerus
     direction -1 -4.4897e-011 1.7415e-027  
     length 5.49854   
     axis 180 30 90   XYZ
    dof rx ry rz
    limits (-90.0 60.0)
           (-90.0 90.0)
           (-90.0 90.0)
  end
  begin
     id 26 
     name rradius
     direction -1 -4.48963e-011 1.21259e-026   
     length 3.1186   
     axis 180 30 90   XYZ
    dof rx
    limits (-10.0 170.0)
  end
  begin
     id 27 
     name rwrist
     direction -1 -4.48967e-011 1.88176e-026   
     length 1.5593   
     axis -1.23311e-014 -90 -90   XYZ
    dof ry
    limits (-180.0 0.0)
  end
  begin
     id 28
     name rhand
     direction -1 -4.4895e-011 3.76352e-026   
     length 0.71207   
     axis -2.40147e-014 -90 -90   XYZ
    dof rx rz
    limits (-90.0 90.0)
           (-45.0 45.0)
  end
  begin
     id 29
     name rfingers
     direction -1 -4.49005e-011 7.52705e-026   
     length 0.574089   
     axis -4.80295e-014 -90 -90   XYZ
    dof rx
    limits (0.0 90.0)
  end
  begin
     id 30
     name rthumb
     direction -0.707107 -6.34982e-011 0.707107   
     length 0.824281   
     axis -90 -45 9.86935e-015   XYZ
    dof rx rz
    limits (-45.0 45.0)
           (-45.0 45.0)
  end
:hierarchy
  begin
    root lhipjoint rhipjoint lowerback
    lhipjoint lfemur
    lfemur ltibia
    ltibia lfoot
    lfoot ltoes
    rhipjoint rfemur
    rfemur rtibia
    rtibia rfoot
    rfoot rtoes
    lowerback upperback
    upperback thorax
    thorax lowerneck lclavicle rclavicle
    lowerneck upperneck
    upperneck head
    lclavicle lhumerus
    lhumerus lradius
    lradius lwrist
    lwrist lhand lthumb
    lhand lfingers
    rclavicle rhumerus
    rhumerus rradius
    rradius rwrist
    rwrist rhand rthumb
    rhand rfingers
  end

#!OML:ASF C:\ViconDB\ViconDB\414\Spring2016\042216\male.ASF
:FULLY-SPECIFIED
:DEGREES
385
root -2.1688 17.5853 9.33634 147.992 85.0972 508.378
lowerback 3.72272 -1.6896 7.06411
upperback -0.0257273 -1.87499 1.3957
thorax -2.29975 -0.990108 -2.40637
lowerneck -3.549 6.4796 -0.713048
upperneck -4.05754 8.71423 -0.912798
head -0.647268 4.39949 -0.123336
rclavicle -1.6201e-014 2.22639e-014
rhumerus -23.5909 -17.1341 -80.9983
rradius 24.007
rwrist 37.6777
rhand 11.413 -21.2424
rfingers 7.12502
rthumb 36.4652 -47.4432
lclavicle -1.6201e-014 2.22639e-014
lhumerus -29.197 4.24926 92.6406
lradius 40.6336
lwrist -9.31261
lhand -8.8928 14.3038
lfingers 7.12502
lthumb 17.0496 43.5756
rfemur 7.44294 7.50727 21.7415
rtibia 14.2529
rfoot -18.3082 -10.8681
rtoes -12.7939
lfemur -26.8761 0.0734716 -24.3576
ltibia 32.7755
lfoot -20.5112 19.5811
ltoes -9.70621
386
root -2.06945 17.5907 9.35239 152.741 85.0147 513.173
lowerback 3.77266 -1.60666 7.14373
upperback -0.0037314 -1.75426 1.45861
thorax -2.29419 -0.928967 -2.39248
lowerneck -3.64399 6.40911 -1.06903
upperneck -4.15317 8.63939 -0.712349
head -0.685783 4.36752 -0.00862642
rclavicle -1.1778e-014 5.40694e-014
rhumerus -23.4767 -17.34 -80.9573
rradius 23.808
rwrist 38.1599
rhand 10.9213 -21.5078
rfingers 7.12502
rthumb 35.9997 -47.8243
lclavicle -1.1778e-014 5.40694e-014
lhumerus -29.3459 5.43585 91.9069
lradius 40.0832
lwrist -9.75801
lhand -8.96812 14.1007
lfingers 7.12502
lthumb 16.9771 43.3788
rfemur 8.44894 7.68017 22.2901
rtibia 13.0391
rfoot -17.7504 -11.1756
rtoes -12.7722
lfemur -27.4584 -0.0306039 -24.1508
ltibia 32.5916
lfoot -19.917 18.8699
ltoes -9.44683
387
root -1.96911 17.5929 9.36802 155.786 84.8114 516.195
lowerback 3.76031 -1.53799 7.0777
upperback -0.00927232 -1.66799 1.43805
thorax -2.28335 -0.88562 -2.38277
lowerneck -3.59543 6.37789 -1.06181
upperneck -4.30086 8.59527 -0.863972
head -0.7315 4.3483 -0.0598437
rclavicle 6.70898e-015 4.77083e-015
rhumerus -23.383 -17.2548 -81.0888
rradius 23.7117
rwrist 38.2073
rhand 11.0592 -21.7323
rfingers 7.12502
rthumb 36.1302 -48.0168
lclavicle 6.70898e-015 4.77083e-015
lhumerus -29.5039 6.3889 91.2185
lradius 39.6539
lwrist -9.36661
lhand -9.22271 14.5536
lfingers 7.12502
lthumb 16.7321 43.8525
rfemur 9.41668 7.80247 22.6307
rtibia 11.7744
rfoot -17.1773 -11.3406
rtoes -12.6924
lfemur -28.0312 -0.121199 -24.1699
ltibia 32.3357
lfoot -18.9334 18.3798
ltoes -9.69687
388
root -1.86175 17.5957 9.38063 158.217 84.7318 518.659
lowerback 3.75842 -1.43355 7.07588
upperback 0.00783056 -1.53238 1.38815
thorax -2.25299 -0.817592 -2.44226
lowerneck -3.59748 6.36204 -1.03197
upperneck -4.35143 8.57061 -1.01123
head -0.738601 4.33736 -0.10917
rclavicle -9.0447e-015 1.11319e-014
rhumerus -23.3494 -17.303 -81.2233
rradius 23.6844
rwrist 38.5009
rhand 11.0422 -21.877
rfingers 7.12502
rthumb 36.1142 -48.1654
lclavicle -9.0447e-015 1.11319e-014
lhumerus -29.6614 7.55378 90.4433
lradius 39.1739
lwrist -9.12605
lhand -9.26765 14.9177
lfingers 7.12502
lthumb 16.6888 44.2203
rfemur 10.5067 7.56104 22.9001
rtibia 10.3526
rfoot -16.2079 -11.2198
rtoes -13.1892
lfemur -28.4755 -0.340835 -24.0913
ltibia 32.073
lfoot -18.2518 18.0063
ltoes -9.2
389
root -1.74919 17.6027 9.39013 160.872 84.6969 521.325
lowerback 3.7298 -1.32587 7.15981
upperback 0.00257416 -1.3908 1.31366
thorax -2.23276 -0.748589 -2.57541
lowerneck -3.64178 6.28636 -1.09167
upperneck -4.37728 8.47378 -0.964023
head -0.743874 4.28999 -0.085316
rclavicle 5.01931e-015 0
rhumerus -23.3494 -16.8068 -81.5395
rradius 23.6972
rwrist 38.2706
rhand 11.2187 -21.6546
rfingers 7.12502
rthumb 36.2813 -47.9015
lclavicle 5.01931e-015 0
lhumerus -30.012 8.57667 89.585
lradius 38.7329
lwrist -9.62084
lhand -9.26575 14.8978
lfingers 7.12502
lthumb 16.6906 44.2002
rfemur 11.6432 7.09141 23.1466
rtibia 8.78516
rfoot -15.2272 -10.7621
rtoes -13.2702
lfemur -28.8777 -0.370272 -24.0092
ltibia 31.7554
lfoot -17.6595 17.5793
ltoes -10.0687
390
root -1.63681 17.6055 9.4005 163.706 84.7078 524.172
lowerback 3.71864 -1.2213 7.25299
upperback -0.0351011 -1.24662 1.31202
thorax -2.25361 -0.679366 -2.63764
lowerneck -3.42732 6.24301 -1.28616
upperneck -4.55272 8.41795 -0.980634
head -0.840243 4.26707 -0.0719734
rclavicle 1.89591e-014 -3.97569e-014
rhumerus -23.4423 -16.3561 -81.7592
rradius 23.7944
rwrist 38.0637
rhand 11.2081 -21.1795
rfingers 7.12502
rthumb 36.2713 -47.4289
lclavicle 1.89591e-014 -3.97569e-014
lhumerus -30.3763 9.73712 88.839
lradius 38.13
lwrist -9.30985
lhand -9.56716 14.7153
lfingers 7.12502
lthumb 16.4004 44.0419
rfemur 13.036 6.66991 23.4119
rtibia 6.71912
rfoot -13.9234 -10.3217
rtoes -13.5661
lfemur -29.2373 -0.440896 -23.8448
ltibia 31.4122
lfoot -16.9759 17.2094
ltoes -9.92238
